<?xml version="1.0" standalone="no"?>
<!DOCTYPE svg PUBLIC "-//W3C//DTD SVG 20010904//EN"
 "http://www.w3.org/TR/2001/REC-SVG-20010904/DTD/svg10.dtd">
<svg version="1.0" xmlns="http://www.w3.org/2000/svg"
 width="550.000000pt" height="550.000000pt" viewBox="0 0 550.000000 550.000000"
 preserveAspectRatio="xMidYMid meet">
<metadata>
Created by potrace 1.11, written by Peter Selinger 2001-2013
</metadata>
<g transform="translate(0.000000,550.000000) scale(0.100000,-0.100000)"
fill="#000000" stroke="none">
<path d="M2434 5429 c-18 -17 -33 -21 -87 -20 -37 0 -69 -4 -72 -9 -4 -6 -22
-10 -41 -10 -19 0 -34 -5 -34 -11 0 -6 -20 -9 -52 -8 -33 2 -53 -1 -56 -9 -2
-7 -12 -12 -23 -12 -10 0 -19 -4 -19 -9 0 -5 -20 -8 -45 -6 -28 1 -53 -4 -67
-14 -13 -8 -31 -14 -41 -13 -9 2 -20 -4 -23 -12 -3 -9 -16 -16 -28 -16 -12 0
-27 -5 -34 -12 -7 -7 -12 -8 -12 -3 0 4 -9 0 -20 -10 -11 -10 -20 -14 -20 -9
0 5 -4 3 -8 -4 -5 -7 -22 -15 -38 -18 -16 -3 -30 -9 -32 -14 -2 -5 -10 -6 -18
-3 -8 3 -14 1 -14 -3 0 -11 -59 -38 -66 -31 -3 3 -17 -6 -31 -19 -14 -13 -29
-21 -33 -19 -5 3 -10 1 -12 -4 -1 -5 -10 -11 -17 -13 -8 -2 -25 -13 -36 -25
-12 -13 -25 -20 -29 -16 -4 4 -10 3 -14 -2 -8 -11 -53 -33 -64 -31 -4 0 -17
-13 -30 -30 -13 -17 -29 -29 -35 -27 -7 3 -13 0 -13 -6 0 -6 -7 -11 -16 -11
-9 0 -30 -16 -47 -35 -23 -27 -35 -33 -53 -29 -19 5 -24 1 -30 -20 -3 -15 -18
-33 -33 -40 -14 -8 -41 -29 -59 -46 -27 -28 -34 -31 -48 -19 -14 11 -16 10
-13 -13 3 -19 -5 -34 -28 -56 -17 -17 -28 -34 -25 -38 4 -4 -3 -1 -16 5 -15 8
-22 8 -22 1 0 -6 -4 -8 -10 -5 -5 3 -10 2 -10 -4 0 -5 5 -13 10 -16 17 -10
-16 -35 -47 -35 -25 -1 -26 -2 -11 -14 16 -12 13 -17 -30 -58 -26 -24 -48 -50
-50 -57 -4 -20 -73 -81 -84 -75 -5 3 -9 0 -7 -7 3 -25 -1 -37 -16 -52 -8 -8
-16 -21 -17 -28 -2 -8 -11 -20 -20 -27 -10 -7 -18 -21 -18 -30 0 -10 -9 -23
-21 -30 -11 -7 -18 -19 -16 -26 3 -8 -5 -19 -18 -26 -14 -7 -22 -17 -19 -22 3
-5 -4 -17 -15 -27 -12 -10 -21 -24 -21 -30 0 -7 -5 -9 -10 -6 -6 3 -10 -3 -10
-14 0 -12 -5 -21 -11 -21 -5 0 -8 -4 -5 -8 3 -5 -1 -20 -9 -35 -8 -15 -11 -27
-8 -27 3 0 -2 -9 -12 -20 -10 -11 -14 -20 -10 -20 4 0 0 -9 -11 -21 -10 -12
-19 -24 -18 -28 2 -14 -9 -41 -17 -41 -5 0 -9 -11 -9 -24 0 -23 -42 -79 -54
-70 -3 2 -2 -2 4 -8 12 -15 13 -48 1 -48 -4 0 -7 -11 -6 -25 2 -14 -1 -25 -6
-25 -5 0 -9 -6 -9 -14 0 -7 -6 -18 -13 -25 -8 -6 -12 -26 -11 -46 2 -20 -1
-33 -5 -30 -5 2 -11 -8 -14 -23 -10 -52 -16 -74 -26 -86 -5 -6 -8 -27 -7 -46
1 -19 -3 -46 -9 -60 -6 -14 -11 -43 -10 -65 0 -22 -3 -43 -8 -46 -5 -4 -9 -20
-9 -35 0 -16 -5 -35 -11 -42 -5 -7 -9 -60 -9 -122 0 -62 -4 -112 -9 -116 -12
-7 -10 -204 1 -204 4 0 7 -16 6 -35 -1 -19 3 -35 9 -35 7 0 7 -3 0 -8 -16 -11
-13 -165 3 -178 9 -6 12 -22 9 -42 -3 -19 0 -38 7 -45 7 -6 12 -32 11 -56 0
-25 5 -50 13 -57 7 -8 11 -18 8 -23 -3 -5 1 -24 9 -43 12 -31 12 -38 -1 -56
-14 -20 -14 -22 5 -22 17 0 21 -6 21 -30 0 -16 5 -30 11 -30 6 0 9 -6 6 -14
-3 -8 1 -20 8 -26 8 -7 13 -16 10 -20 -3 -4 2 -24 10 -43 8 -19 11 -38 7 -41
-3 -4 0 -11 8 -16 8 -5 15 -15 15 -22 2 -26 17 -68 26 -68 5 0 9 -9 9 -20 0
-11 5 -20 10 -20 6 0 10 -9 10 -20 0 -11 5 -20 10 -20 6 0 10 -6 9 -13 -3 -24
1 -36 19 -53 9 -10 17 -26 17 -36 0 -10 5 -22 10 -26 11 -7 45 -58 45 -66 0
-3 -9 -3 -20 -1 -11 2 -20 0 -20 -6 0 -8 23 -13 35 -6 7 3 43 -67 38 -75 -2
-5 1 -8 7 -8 14 0 49 -40 50 -55 0 -6 9 -18 20 -28 11 -9 20 -23 20 -31 0 -7
7 -20 16 -27 15 -12 30 -32 79 -107 18 -28 90 -97 97 -95 5 2 8 -4 8 -12 0 -8
4 -15 8 -15 5 0 15 -12 23 -27 16 -31 137 -153 151 -153 5 0 39 -29 74 -65 36
-36 70 -65 77 -65 7 0 25 -16 41 -35 16 -19 33 -32 37 -29 5 3 9 0 9 -6 0 -6
3 -9 8 -7 4 3 13 -1 19 -9 8 -8 9 -15 3 -19 -7 -4 -6 -13 1 -27 9 -16 13 -18
19 -7 5 7 6 17 3 23 -4 5 1 7 11 3 10 -4 20 -7 22 -7 2 0 4 -7 4 -15 0 -8 6
-12 14 -9 9 3 17 -3 21 -15 4 -14 15 -21 31 -21 13 0 24 -4 24 -10 0 -5 7 -10
15 -10 9 0 29 -14 45 -30 17 -17 34 -29 39 -26 4 3 16 -1 27 -8 10 -8 24 -12
31 -9 7 3 13 1 13 -5 0 -13 78 -54 90 -47 4 3 11 -2 14 -11 4 -9 9 -14 12 -11
3 3 17 -1 31 -8 15 -8 30 -12 33 -10 4 3 15 -4 25 -15 11 -12 31 -20 52 -20
18 0 33 -4 33 -10 0 -5 9 -10 20 -10 11 0 20 -4 20 -10 0 -5 15 -10 34 -10 19
0 38 -5 42 -11 3 -6 15 -8 26 -6 11 3 21 0 25 -9 3 -9 15 -12 33 -9 17 3 32
-1 40 -10 7 -8 16 -12 22 -9 5 3 20 -2 33 -10 14 -9 25 -12 25 -6 0 6 9 6 25
0 14 -5 25 -6 25 -2 0 4 7 -2 15 -12 8 -11 15 -14 15 -8 0 10 5 10 20 2 14 -8
20 -8 20 0 0 6 13 4 31 -5 17 -9 33 -14 36 -11 3 2 15 1 27 -4 13 -4 29 -4 39
1 13 8 17 6 17 -5 0 -16 25 -15 42 2 16 16 28 15 28 -1 0 -10 17 -13 63 -12
34 0 65 -4 69 -10 11 -15 176 -14 182 2 5 12 35 11 56 -2 6 -3 10 -2 10 2 0 5
39 8 88 7 48 0 92 3 98 7 6 5 19 10 30 12 10 2 29 8 41 15 13 7 24 8 28 3 5
-10 37 -7 55 4 6 3 10 1 10 -6 0 -8 7 -7 23 4 13 8 41 14 65 13 26 -2 43 2 46
11 3 7 12 13 21 13 8 0 15 4 15 9 0 4 12 7 27 5 15 -1 33 2 40 7 6 6 25 11 41
13 17 1 37 8 46 15 9 7 16 10 16 5 0 -4 5 -3 12 4 7 7 22 12 34 12 13 0 26 5
29 10 3 6 19 10 34 10 15 0 32 5 39 12 7 7 12 9 12 4 0 -4 7 0 16 8 8 9 20 14
25 11 5 -4 9 -2 9 2 0 8 58 34 86 39 19 3 64 36 64 46 0 6 7 8 15 4 8 -3 19 2
24 12 6 9 11 13 11 8 0 -4 11 -1 25 8 14 9 25 13 25 9 0 -4 7 3 16 15 8 12 24
22 35 22 10 0 19 5 19 10 0 6 5 10 10 10 14 0 72 41 83 57 4 7 16 13 25 13 9
0 30 14 45 30 16 17 35 30 43 30 8 0 14 5 14 11 0 5 4 8 9 4 5 -3 12 -1 16 5
3 5 15 10 26 10 12 0 19 7 19 20 0 11 5 20 10 20 6 0 10 8 10 18 0 13 2 14 9
4 6 -10 10 -10 21 3 7 8 9 15 4 15 -4 0 7 13 26 30 18 16 37 27 41 24 5 -3 9
-1 9 4 0 5 10 12 21 15 15 4 20 11 16 21 -4 9 -2 16 3 16 12 0 110 100 107
110 -1 4 41 50 94 103 61 60 93 99 87 105 -5 5 5 23 29 47 21 21 37 41 35 44
-1 3 4 13 11 21 7 8 14 18 15 23 1 4 11 16 22 27 12 12 18 25 15 30 -3 4 6 17
20 28 13 11 21 22 17 26 -3 4 -1 11 6 15 7 4 14 17 15 29 0 11 5 18 9 16 4 -3
8 -1 8 5 0 5 12 28 27 51 16 23 28 51 28 61 0 11 7 24 15 29 8 5 11 10 7 10
-5 0 1 16 12 36 12 19 19 39 16 44 -3 4 2 10 10 14 8 3 15 16 15 29 0 13 5 28
12 35 7 7 8 12 2 12 -5 0 -3 4 4 9 7 4 14 15 16 23 1 9 7 22 12 29 6 8 10 26
9 42 -1 15 1 27 5 27 5 0 11 7 14 16 4 10 2 13 -7 8 -9 -5 -9 -4 0 6 6 7 9 19
6 26 -3 8 0 14 7 14 7 0 10 8 7 20 -3 10 2 25 9 31 8 7 13 18 10 26 -3 7 0 13
7 13 8 0 12 18 13 52 0 29 5 53 11 55 6 2 9 17 7 34 -2 17 2 45 9 62 7 18 12
52 12 77 0 25 3 48 7 51 5 3 9 49 10 102 0 54 5 100 9 103 5 3 9 55 9 115 0
68 -4 108 -10 104 -6 -3 -8 36 -7 105 1 77 -2 111 -10 114 -8 3 -11 27 -9 71
1 44 -2 69 -11 77 -7 5 -11 14 -8 18 3 4 -1 13 -8 19 -9 7 -13 33 -12 80 1 39
-1 68 -5 66 -11 -7 -33 41 -26 54 4 6 2 11 -4 11 -6 0 -9 4 -5 9 3 5 1 12 -5
16 -5 3 -10 21 -10 40 0 19 -4 36 -10 40 -5 3 -7 12 -3 20 3 8 0 15 -7 15 -6
0 -8 4 -5 10 3 6 2 10 -4 10 -6 0 -8 6 -5 14 3 7 -2 16 -11 20 -10 3 -15 13
-12 20 6 16 -13 66 -25 66 -5 0 -8 14 -8 30 0 17 -4 30 -10 30 -5 0 -10 9 -10
20 0 11 -4 20 -10 20 -5 0 -7 7 -4 15 4 8 -1 17 -10 21 -9 3 -13 10 -10 15 3
5 0 9 -5 9 -6 0 -11 9 -11 20 0 11 -5 20 -11 20 -5 0 -7 5 -4 10 3 6 1 10 -6
10 -7 0 -9 3 -6 6 4 4 -1 14 -11 23 -10 9 -17 23 -17 31 1 8 -10 27 -24 43
-13 15 -21 27 -16 27 4 0 1 8 -8 18 -10 10 -15 21 -12 24 3 3 -4 13 -15 23
-11 10 -20 23 -20 29 0 6 -13 24 -30 39 -16 16 -29 32 -27 36 1 4 -10 19 -25
34 -16 15 -28 33 -28 39 0 6 -16 26 -34 43 -19 17 -36 38 -38 45 -2 8 -22 31
-46 52 -24 21 -40 38 -37 38 3 0 -19 25 -50 55 -31 30 -61 55 -66 55 -6 0 -7
5 -4 10 3 6 2 10 -3 10 -5 0 -15 13 -22 30 -7 16 -16 27 -21 24 -5 -3 -25 10
-43 28 -19 19 -39 32 -45 30 -6 -2 -11 1 -11 7 0 6 -8 11 -17 11 -15 0 -16 2
-3 10 13 9 13 10 0 10 -9 0 -22 9 -30 19 -7 11 -17 18 -22 15 -5 -3 -21 8 -37
25 -16 17 -35 31 -43 31 -7 0 -24 14 -37 30 -13 16 -27 28 -31 25 -4 -2 -15 4
-25 15 -10 11 -24 20 -31 20 -7 0 -20 7 -28 16 -9 8 -16 13 -16 9 0 -3 -10 3
-22 14 -11 11 -24 18 -28 16 -5 -3 -11 2 -14 11 -3 9 -13 14 -20 11 -8 -3 -16
-3 -18 1 -5 10 -88 52 -104 52 -8 0 -14 5 -14 10 0 6 -7 10 -15 10 -8 0 -15 5
-15 11 0 5 -4 8 -9 4 -5 -3 -16 2 -25 10 -8 8 -19 15 -23 14 -25 -4 -43 2 -37
13 4 7 3 8 -4 4 -7 -4 -21 0 -33 8 -12 8 -27 12 -35 9 -8 -3 -16 1 -19 9 -6
14 -12 16 -52 19 -10 1 -26 8 -35 16 -9 8 -21 12 -26 9 -6 -3 -12 0 -15 8 -3
8 -20 12 -46 11 -23 -1 -41 2 -41 7 0 4 -9 8 -21 8 -11 0 -17 5 -14 10 5 9
-46 16 -82 11 -7 -1 -13 3 -13 9 0 6 -23 10 -54 10 -30 0 -57 4 -61 10 -3 5
-26 9 -50 8 -25 0 -51 4 -57 9 -7 6 -53 10 -103 9 -49 -1 -99 2 -110 8 -30 15
-245 15 -245 0 0 -9 -11 -10 -37 -4 -21 5 -42 6 -48 2 -9 -7 -23 -7 -88 -3
-10 0 -15 6 -12 11 10 16 1 12 -21 -11z"/>
</g>
</svg>
